<svg width="130" height="130" viewBox="0 0 130 130" fill="none" xmlns="http://www.w3.org/2000/svg"><path d="M0.588511 0.588511H127.512V127.512H0.588511V0.588511Z" fill="#3C3CE9" stroke="#fff" stroke-width="1.177"/><path d="M21.9906 85.2599V43.9184H33.3449V85.2599H21.9906ZM72.6706 53.8172H60.7923V85.2599H49.4381V53.8172H37.5014V43.9184H72.6706V53.8172ZM101.844 57.4272C101.844 57.4272 101.514 57.2332 100.854 56.845C100.194 56.4568 99.3208 56.0298 98.2339 55.5639C97.1471 55.0594 95.9632 54.6129 94.6821 54.2247C93.401 53.8365 92.1394 53.6425 90.8974 53.6425C89.9268 53.6425 89.1311 53.7976 88.5099 54.1084C87.8889 54.4189 87.5784 54.9429 87.5784 55.6804C87.5784 56.7673 88.2578 57.5437 89.6163 58.0096C91.0137 58.4366 92.8965 59.0381 95.2643 59.8145C97.8264 60.5909 100.039 61.4838 101.902 62.493C103.766 63.5024 105.202 64.8028 106.211 66.3942C107.22 67.9469 107.725 70.0237 107.725 72.6245C107.725 75.109 107.279 77.2051 106.386 78.9133C105.493 80.5823 104.29 81.9216 102.776 82.9308C101.262 83.9402 99.5732 84.6777 97.7099 85.1436C95.8467 85.5704 93.9445 85.7839 92.0036 85.7839C90.0238 85.7839 87.947 85.5899 85.7732 85.2017C83.6383 84.7747 81.5615 84.2118 79.5429 83.5132C77.5245 82.7756 75.6805 81.9216 74.0112 80.9512L78.9023 70.9943C78.9023 70.9943 79.2905 71.2271 80.0669 71.693C80.8433 72.1589 81.872 72.6829 83.1531 73.2651C84.434 73.8475 85.8509 74.3715 87.4037 74.8371C88.9953 75.303 90.5867 75.5361 92.1783 75.5361C93.4205 75.5361 94.2746 75.3807 94.7402 75.0702C95.2449 74.7208 95.4973 74.2743 95.4973 73.7309C95.4973 72.9157 95.0703 72.2947 94.2162 71.8677C93.3621 71.4018 92.2364 70.9748 90.839 70.5866C89.4805 70.1595 87.9666 69.6744 86.2973 69.131C82.6484 67.8888 79.9895 66.4137 78.3202 64.7056C76.6509 62.9588 75.8164 60.5715 75.8164 57.5437C75.8164 54.477 76.5346 51.9151 77.9708 49.8576C79.4071 47.8003 81.2899 46.2476 83.6188 45.1995C85.9868 44.1126 88.5294 43.5691 91.2467 43.5691C93.2652 43.5691 95.2061 43.8214 97.0694 44.3262C98.9715 44.7918 100.738 45.3742 102.368 46.0729C104.037 46.7716 105.493 47.4315 106.735 48.0527L101.844 57.4272Z" fill="#fff"/></svg>