<svg width="283" height="283" viewBox="0 0 283 283" fill="none" xmlns="http://www.w3.org/2000/svg"><path fill="#fff" d="M0 0H283V283H0z"/><path d="M141 167C155.359 167 167 155.359 167 141C167 126.641 155.359 115 141 115C126.641 115 115 126.641 115 141C115 155.359 126.641 167 141 167Z" fill="#3F1577"/><path d="M125.821 140.775L143.329 133.561C145.058 132.809 150.919 130.405 150.919 130.405C150.919 130.405 153.624 129.353 153.399 131.908C153.324 132.96 152.723 136.642 152.121 140.624L150.243 152.422C150.243 152.422 150.092 154.15 148.815 154.451C147.538 154.752 145.434 153.399 145.058 153.098C144.757 152.873 139.422 149.491 137.468 147.838C136.942 147.387 136.341 146.486 137.543 145.434C140.249 142.954 143.48 139.873 145.434 137.919C146.335 137.017 147.237 134.913 143.48 137.468L132.884 144.607C132.884 144.607 131.682 145.359 129.428 144.682C127.173 144.006 124.543 143.104 124.543 143.104C124.543 143.104 122.74 141.977 125.821 140.775V140.775Z" fill="#fff"/><rect x="22" y="163" width="36" height="10" rx="5" transform="rotate(90 22 163)" fill="#3F1577"/><path d="M66 190L20.5 190C18.0147 190 16 187.985 16 185.5V185.5C16 183.015 18.0147 181 20.5 181L61 181C63.7614 181 66 183.239 66 186L66 190Z" fill="#3F1577"/><path d="M30 194.789C30 197.115 28.1149 199 25.7895 199L18.5 199C16.0147 199 14 196.985 14 194.5V194.5C14 192.015 16.0147 190 18.5 190L30 190L30 194.789Z" fill="#3F1577"/><path d="M75 194.5C75 196.985 72.9853 199 70.5 199L62 199C59.2386 199 57 196.761 57 194L57 190L70.5 190C72.9853 190 75 192.015 75 194.5V194.5Z" fill="#3F1577"/><path d="M48 181L20.5 181C18.0147 181 16 178.985 16 176.5V176.5C16 174.015 18.0147 172 20.5 172L43 172C45.7614 172 48 174.239 48 177L48 181Z" fill="#3F1577"/><rect x="93" y="217" width="17" height="8" rx="4" transform="rotate(-90 93 217)" fill="#3F1577"/><rect x="84" y="199" width="44" height="9" rx="4.5" fill="#3F1577"/><rect x="128" y="200" width="17" height="9" rx="4.5" transform="rotate(90 128 200)" fill="#3F1577"/><rect x="111" y="181" width="25" height="10" rx="5" transform="rotate(90 111 181)" fill="#3F1577"/><path d="M114.526 190C116.997 190 119 192.003 119 194.474L119 202C119 204.761 116.761 207 114 207V207C111.239 207 109 204.761 109 202L109 190L114.526 190Z" fill="#3F1577"/><path d="M258 163C255.239 163 253 160.761 253 158V151.5C253 149.015 255.015 147 257.5 147C259.985 147 262 149.015 262 151.5V163H258Z" fill="#3F1577"/><path d="M261 163V132.5C261 130.015 263.015 128 265.5 128C267.985 128 270 130.015 270 132.5V158C270 160.761 267.761 163 265 163H261Z" fill="#3F1577"/><path d="M155 176.5C155 178.985 152.985 181 150.5 181H128V177C128 174.239 130.239 172 133 172H150.5C152.985 172 155 174.015 155 176.5Z" fill="#3F1577"/><path d="M146 185C146 187.761 143.761 190 141 190H123.5C121.015 190 119 187.985 119 185.5C119 183.015 121.015 181 123.5 181H146V185Z" fill="#3F1577"/><rect x="155" y="12" width="9" height="9" rx="4.5" fill="#3F1577"/><rect x="84" y="21" width="9" height="9" rx="4.5" fill="#3F1577"/><rect x="102" y="48" width="9" height="9" rx="4.5" fill="#3F1577"/><rect x="101" y="65" width="9" height="9" rx="4.5" fill="#3F1577"/><rect x="119" y="65" width="9" height="9" rx="4.5" fill="#3F1577"/><rect x="93" y="164" width="8" height="8" rx="4" fill="#3F1577"/><rect x="102" y="155" width="8" height="8" rx="4" fill="#3F1577"/><rect x="66" y="172" width="9" height="9" rx="4.5" fill="#3F1577"/><rect x="48" y="163" width="9" height="9" rx="4.5" fill="#3F1577"/><rect x="49" y="128" width="8" height="8" rx="4" fill="#3F1577"/><rect x="101" y="110" width="9" height="9" rx="4.5" fill="#3F1577"/><rect x="182" y="137" width="9" height="9" rx="4.5" fill="#3F1577"/><rect x="173" y="145" width="9" height="9" rx="4.5" fill="#3F1577"/><rect x="173" y="163" width="9" height="9" rx="4.5" fill="#3F1577"/><rect x="226" y="128" width="9" height="9" rx="4.5" fill="#3F1577"/><rect x="261" y="172" width="9" height="9" rx="4.5" fill="#3F1577"/><rect x="262" y="110" width="9" height="9" rx="4.5" fill="#3F1577"/><rect x="208" y="208" width="9" height="9" rx="4.5" fill="#3F1577"/><rect x="173" y="83" width="9" height="9" rx="4.5" fill="#3F1577"/><rect x="191" y="65" width="9" height="9" rx="4.5" fill="#3F1577"/><rect x="48" y="101" width="9" height="9" rx="4.5" fill="#3F1577"/><rect x="66" y="119" width="9" height="9" rx="4.5" fill="#3F1577"/><rect x="57" y="110" width="9" height="9" rx="4.5" fill="#3F1577"/><rect x="75" y="182" width="17" height="8" rx="4" fill="#3F1577"/><path d="M13 132C13 129.791 14.7909 128 17 128H34C36.7614 128 39 130.239 39 133V136H17C14.7909 136 13 134.209 13 132V132Z" fill="#3F1577"/><rect x="21" y="119" width="17" height="8" rx="4" transform="rotate(90 21 119)" fill="#3F1577"/><path d="M22 136H43.5C45.9853 136 48 138.015 48 140.5V140.5C48 142.985 45.9853 145 43.5 145H22V136Z" fill="#3F1577"/><path d="M22 154H43.5C45.9853 154 48 156.015 48 158.5V158.5C48 160.985 45.9853 163 43.5 163H27C24.2386 163 22 160.761 22 158V154Z" fill="#3F1577"/><path d="M57 158.5C57 156.015 59.0147 154 61.5 154H92V158C92 160.761 89.7614 163 87 163H61.5C59.0147 163 57 160.985 57 158.5V158.5Z" fill="#3F1577"/><path d="M74 146H97C99.2091 146 101 147.791 101 150V150C101 152.209 99.2091 154 97 154H74V146Z" fill="#3F1577"/><path d="M57 141.5C57 139.015 59.0147 137 61.5 137H79C81.7614 137 84 139.239 84 142V146H61.5C59.0147 146 57 143.985 57 141.5V141.5Z" fill="#3F1577"/><rect x="137" y="199" width="8" height="8" rx="4" fill="#3F1577"/><rect x="146" y="190" width="8" height="8" rx="4" fill="#3F1577"/><rect x="16.5" y="15.5" width="57" height="58" rx="17.5" stroke="#3F1577" stroke-width="9"/><rect x="31" y="30" width="28" height="29" rx="9" fill="#3F1577"/><rect x="16.5" y="208.5" width="57" height="58" rx="17.5" stroke="#3F1577" stroke-width="9"/><rect x="31" y="223" width="28" height="29" rx="9" fill="#3F1577"/><rect x="209.5" y="15.5" width="57" height="58" rx="17.5" stroke="#3F1577" stroke-width="9"/><rect x="224" y="30" width="28" height="29" rx="9" fill="#3F1577"/><path d="M21 88C21 85.2386 23.2386 83 26 83C28.7614 83 31 85.2386 31 88V114C31 116.761 28.7614 119 26 119C23.2386 119 21 116.761 21 114V88Z" fill="#3F1577"/><rect x="22" y="110" width="26" height="9" rx="4.5" fill="#3F1577"/><path d="M25 106.5C25 103.462 27.4624 101 30.5 101H35C37.2091 101 39 102.791 39 105V112H30.5C27.4624 112 25 109.538 25 106.5Z" fill="#3F1577"/><rect x="39" y="112" width="9" height="15" rx="4.5" fill="#3F1577"/><rect x="39" y="83" width="9" height="18" rx="4.5" fill="#3F1577"/><rect x="40" y="83" width="35" height="9" rx="4.5" fill="#3F1577"/><rect x="57" y="85" width="9" height="16" rx="4.5" fill="#3F1577"/><rect x="84" y="65" width="9" height="27" rx="4.5" fill="#3F1577"/><rect x="128" y="226" width="107" height="8" rx="4" fill="#3F1577"/><rect x="137" y="217" width="9" height="26" rx="4.5" fill="#3F1577"/><path d="M164 213C164 210.239 166.239 208 169 208H173V238C173 240.761 170.761 243 168 243H164V213Z" fill="#3F1577"/><rect x="155" y="226" width="9" height="26" rx="4.5" fill="#3F1577"/><path d="M173 203C173 200.791 174.791 199 177 199H199V216H173V203Z" fill="#3F1577"/><path fill="#3F1577" d="M182 214H199V228H182z"/><path d="M190 195C190 192.239 192.239 190 195 190H257C259.209 190 261 191.791 261 194V199H190V195Z" fill="#3F1577"/><path d="M199 186C199 183.239 201.239 181 204 181H221C223.761 181 226 183.239 226 186V190H199V186Z" fill="#3F1577"/><path d="M226 199H261V203C261 205.209 259.209 207 257 207H226V199Z" fill="#3F1577"/><path fill="#3F1577" d="M226 207H235V231H226z"/><rect x="229" y="217" width="15" height="9" rx="4.5" fill="#3F1577"/><path d="M244 172H247C249.761 172 252 174.239 252 177V213C252 215.209 250.209 217 248 217C245.791 217 244 215.209 244 213V172Z" fill="#3F1577"/><path d="M235 141.5C235 139.015 237.015 137 239.5 137C241.985 137 244 139.015 244 141.5V181H235V141.5Z" fill="#3F1577"/><path d="M226 168C226 165.239 228.239 163 231 163H235V181H231C228.239 181 226 178.761 226 176V168Z" fill="#3F1577"/><path d="M226 149C226 147.343 227.343 146 229 146H270V154H229C227.343 154 226 152.657 226 151V149Z" fill="#3F1577"/><rect x="84" y="217" width="8" height="26" rx="4" fill="#3F1577"/><rect x="102" y="217" width="17" height="8" rx="4" fill="#3F1577"/><rect x="93" y="244" width="8" height="8" rx="4" fill="#3F1577"/><rect x="120" y="253" width="8" height="8" rx="4" fill="#3F1577"/><rect x="173" y="244" width="8" height="8" rx="4" fill="#3F1577"/><rect x="146" y="208" width="8" height="8" rx="4" fill="#3F1577"/><rect x="84" y="253" width="8" height="8" rx="4" fill="#3F1577"/><rect x="93" y="261" width="17" height="9" rx="4.5" fill="#3F1577"/><rect x="110" y="252" width="17" height="9" rx="4.5" transform="rotate(90 110 252)" fill="#3F1577"/><rect x="154" y="261" width="17" height="9" rx="4.5" transform="rotate(-180 154 261)" fill="#3F1577"/><rect x="172" y="270" width="17" height="9" rx="4.5" transform="rotate(-180 172 270)" fill="#3F1577"/><rect x="137" y="270" width="17" height="9" rx="4.5" transform="rotate(-90 137 270)" fill="#3F1577"/><rect x="243" y="92" width="17" height="9" rx="4.5" transform="rotate(-180 243 92)" fill="#3F1577"/><rect x="226" y="101" width="17" height="9" rx="4.5" transform="rotate(-90 226 101)" fill="#3F1577"/><rect x="244" y="92" width="17" height="9" rx="4.5" fill="#3F1577"/><rect x="261" y="83" width="17" height="9" rx="4.5" transform="rotate(90 261 83)" fill="#3F1577"/><rect x="146" y="12" width="17" height="9" rx="4.5" transform="rotate(90 146 12)" fill="#3F1577"/><rect x="155" y="29" width="17" height="9" rx="4.5" transform="rotate(180 155 29)" fill="#3F1577"/><rect x="190" y="21" width="17" height="9" rx="4.5" transform="rotate(180 190 21)" fill="#3F1577"/><rect x="217" y="110" width="27" height="9" rx="4.5" fill="#3F1577"/><rect x="244" y="101" width="17" height="9" rx="4.5" transform="rotate(90 244 101)" fill="#3F1577"/><rect x="101" y="145" width="17" height="9" rx="4.5" transform="rotate(-90 101 145)" fill="#3F1577"/><rect x="92" y="128" width="17" height="9" rx="4.5" fill="#3F1577"/><rect x="102" y="92" width="26" height="9" rx="4.5" fill="#3F1577"/><rect x="110" y="99" width="25" height="9" rx="4.5" transform="rotate(-90 110 99)" fill="#3F1577"/><path d="M142 101C139.239 101 137 98.7614 137 96V61.5C137 59.0147 139.015 57 141.5 57V57C143.985 57 146 59.0147 146 61.5V101H142Z" fill="#3F1577"/><rect x="128" y="74" width="18" height="9" rx="4.5" fill="#3F1577"/><rect x="119" y="109" width="16" height="9" rx="4.5" transform="rotate(-90 119 109)" fill="#3F1577"/><rect x="147" y="101" width="26" height="9" rx="4.5" fill="#3F1577"/><path d="M159.5 110C157.015 110 155 107.985 155 105.5V92H159C161.761 92 164 94.2386 164 97V105.5C164 107.985 161.985 110 159.5 110V110Z" fill="#3F1577"/><path d="M150.5 110C148.015 110 146 107.985 146 105.5V83H150C152.761 83 155 85.2386 155 88V105.5C155 107.985 152.985 110 150.5 110V110Z" fill="#3F1577"/><rect x="84" y="127" width="26" height="9" rx="4.5" transform="rotate(-90 84 127)" fill="#3F1577"/><rect x="66" y="101" width="26" height="9" rx="4.5" fill="#3F1577"/><path d="M92 34.5C92 32.0147 94.0147 30 96.5 30C98.9853 30 101 32.0147 101 34.5V43C101 45.7614 98.7614 48 96 48H92V34.5Z" fill="#3F1577"/><path d="M84 43C84 40.7909 85.7909 39 88 39H93V51.5C93 53.9853 90.9853 56 88.5 56C86.0147 56 84 53.9853 84 51.5V43Z" fill="#3F1577"/><rect x="190" y="244" width="18" height="26" rx="5" fill="#3F1577"/><rect x="203" y="252" width="14" height="9" rx="4.5" fill="#3F1577"/><rect x="190" y="154" width="18" height="18" rx="5" fill="#3F1577"/><rect x="190" y="165" width="9" height="16" rx="4.5" fill="#3F1577"/><path d="M217 234H226V252H222C219.239 252 217 249.761 217 247V234Z" fill="#3F1577"/><path d="M226 244H230C232.761 244 235 246.239 235 249V265C235 267.761 232.761 270 230 270H226V244Z" fill="#3F1577"/><rect x="217" y="261" width="13" height="9" rx="4.5" fill="#3F1577"/><rect x="231" y="252" width="21" height="9" rx="4.5" fill="#3F1577"/><path d="M252 222C252 219.239 254.239 217 257 217V217C259.761 217 262 219.239 262 222V253H257C254.239 253 252 250.761 252 248V222Z" fill="#3F1577"/><path d="M261 243H265C267.761 243 270 245.239 270 248V256.5C270 258.985 267.985 261 265.5 261V261C263.015 261 261 258.985 261 256.5V243Z" fill="#3F1577"/><rect x="254" y="225" width="17" height="10" rx="5" fill="#3F1577"/><rect x="243" y="234" width="17" height="10" rx="5" fill="#3F1577"/><path d="M244 132.5C244 130.015 246.015 128 248.5 128H266V137H248.5C246.015 137 244 134.985 244 132.5V132.5Z" fill="#3F1577"/><rect x="252" y="119" width="10" height="17" rx="5" fill="#3F1577"/><path d="M190 88C190 85.2386 192.239 83 195 83H212.5C214.985 83 217 85.0147 217 87.5V87.5C217 89.9853 214.985 92 212.5 92H190V88Z" fill="#3F1577"/><path d="M190 92H208V101H195C192.239 101 190 98.7614 190 96V92Z" fill="#3F1577"/><path d="M199 101H212.5C214.985 101 217 103.015 217 105.5V105.5C217 107.985 214.985 110 212.5 110H204C201.239 110 199 107.761 199 105V101Z" fill="#3F1577"/><rect x="199" y="136" width="27" height="10" rx="5" fill="#3F1577"/><rect x="217" y="119" width="26" height="9" rx="4.5" transform="rotate(90 217 119)" fill="#3F1577"/><rect x="217" y="128" width="44" height="9" rx="4.5" transform="rotate(-180 217 128)" fill="#3F1577"/><rect x="190" y="136" width="15" height="9" rx="4.5" transform="rotate(-90 190 136)" fill="#3F1577"/><rect x="173" y="136" width="15" height="9" rx="4.5" transform="rotate(-90 173 136)" fill="#3F1577"/><rect x="217" y="128" width="44" height="9" rx="4.5" transform="rotate(-180 217 128)" fill="#3F1577"/><rect x="119" y="21" width="26" height="9" rx="4.5" transform="rotate(-180 119 21)" fill="#3F1577"/><path d="M128 38L114 38C111.791 38 110 36.2091 110 34V34C110 31.7909 111.791 30 114 30L123.263 30C125.879 30 128 32.1208 128 34.7368L128 38Z" fill="#3F1577"/><rect x="128" y="56" width="18" height="9" rx="4.5" transform="rotate(-90 128 56)" fill="#3F1577"/><rect x="155" y="74" width="44" height="9" rx="4.5" transform="rotate(-90 155 74)" fill="#3F1577"/><rect x="110" y="38" width="25" height="9" rx="4.5" transform="rotate(-90 110 38)" fill="#3F1577"/><path d="M173 42.5C173 44.9853 170.985 47 168.5 47L124 47C121.239 47 119 44.7614 119 42L119 38L168.5 38C170.985 38 173 40.0147 173 42.5V42.5Z" fill="#3F1577"/><path d="M190 47L190 25.5C190 23.0147 192.015 21 194.5 21V21C196.985 21 199 23.0147 199 25.5L199 42C199 44.7614 196.761 47 194 47L190 47Z" fill="#3F1577"/><path d="M164 66L164 42.5C164 40.0147 166.015 38 168.5 38V38C170.985 38 173 40.0147 173 42.5L173 66L164 66Z" fill="#3F1577"/><path d="M177.5 74C175.015 74 173 71.9853 173 69.5L173 48L182 48L182 69.5C182 71.9853 179.985 74 177.5 74V74Z" fill="#3F1577"/><path d="M182 56L182 43C182 40.2386 184.239 38 187 38L191 38L191 51C191 53.7614 188.761 56 186 56L182 56Z" fill="#3F1577"/><path fill="#3F1577" d="M22 144H31V154H22z"/></svg>